<svg xmlns="http://www.w3.org/2000/svg" viewBox="0 0 64 68">
  <path d="M32 2 58 11v18c0 17-10.1 29.7-26 36.6C16.1 58.7 6 46 6 29V11Z" fill="#fff" stroke="#dce7f4" stroke-width="2"/>
  <path d="M32 6 54 13.6v15c0 14.2-7.8 24.9-22 31.6-14.2-6.7-22-17.4-22-31.6v-15Z" fill="#17488f" stroke="#0a2548" stroke-width="2.4"/>
  <path d="M32 10.2 50 16.4v12.2c0 11.6-6 20.5-18 26.5-12-6-18-14.9-18-26.5V16.4Z" fill="none" stroke="#a9c9ff" stroke-width="1.4" opacity=".92"/>
  <circle cx="20" cy="29" r="4.2" fill="#ef3340" stroke="#fff" stroke-width="1.7"/>
  <circle cx="43.5" cy="23" r="4.2" fill="#75a7ff" stroke="#fff" stroke-width="1.7"/>
  <circle cx="43.5" cy="43" r="4.2" fill="#fff" stroke="#fff" stroke-width="1.7"/>
  <path d="m23.8 27.9 15.5-3.7M23.6 31.1l15.8 9.8M20 33.2v10.5h19.2" fill="none" stroke="#fff" stroke-width="2.3" stroke-linecap="round" stroke-linejoin="round"/>
</svg>
